<svg width="341" height="72" viewBox="0 0 341 72" fill="none" xmlns="http://www.w3.org/2000/svg">
<circle cx="34" cy="33" r="31.5" fill="#EDEADF" stroke="#4F512E"/>
<path d="M13.5089 33.7124C22.5624 33.3642 27.4374 39.9512 28.7432 43.2882C33.0959 31.9713 46.1539 35.4535 50.0713 36.324C58.7766 35.6276 58.3413 31.6812 57.0355 29.795C56.4552 28.7794 55.2944 26.487 55.2944 25.4424C55.9909 22.3085 54.7141 20.9446 53.9886 20.6544C52.5378 20.0741 49.5489 18.6522 49.2007 17.6076C48.7655 16.3018 48.7655 14.996 47.0244 14.1255C45.2833 13.2549 45.2833 14.1255 42.6717 17.1723C40.0601 20.2192 40.0601 16.3018 40.4954 15.8665C44.674 13.0808 43.107 10.063 41.8012 8.90226C40.6405 8.46699 37.5356 7.24825 34.4017 5.8554C31.2678 4.46254 30.4843 7.88664 30.4843 9.77279C30.9195 13.8353 31.7901 22.3085 31.7901 23.7013C30.3972 27.5316 28.3079 25.2973 27.4374 23.7013C27.7276 20.0741 28.395 11.9491 28.7432 8.46697C29.1785 4.11431 25.2611 4.11431 23.9553 5.4201C22.6495 6.7259 20.0379 7.16117 16.5558 9.3375C13.0736 11.5138 16.1205 12.3844 17.4263 12.8196C18.7321 13.2549 18.2968 14.5607 17.8616 15.4312C17.5133 16.1277 16.2656 15.7214 15.6852 15.4312C15.5401 14.8509 14.6406 13.6902 12.2031 13.6902C9.76561 13.6902 8.86606 17.7526 8.72097 19.7839C7.70535 20.0741 5.15179 21.0897 3.06251 22.8307C0.450914 25.0071 2.19198 34.1477 13.5089 33.7124Z" fill="#B4B570" fill-opacity="0.2"/>
<path d="M28.7432 65.0516V43.2882M28.7432 43.2882C27.4374 39.9512 22.5624 33.3642 13.5089 33.7124C2.19198 34.1477 0.450914 25.0071 3.06251 22.8307C5.15179 21.0897 7.70535 20.0741 8.72097 19.7839C8.86606 17.7526 9.76561 13.6902 12.2031 13.6902C14.6406 13.6902 15.5401 14.8509 15.6852 15.4312C16.2656 15.7214 17.5133 16.1277 17.8616 15.4312C18.2968 14.5607 18.7321 13.2549 17.4263 12.8196C16.1205 12.3844 13.0736 11.5138 16.5558 9.3375C20.0379 7.16117 22.6495 6.7259 23.9553 5.4201C25.2611 4.11431 29.1785 4.11431 28.7432 8.46697C28.395 11.9491 27.7276 20.0741 27.4374 23.7013C28.3079 25.2973 30.3972 27.5316 31.7901 23.7013C31.7901 22.3085 30.9195 13.8353 30.4843 9.77279C30.4843 7.88664 31.2678 4.46254 34.4017 5.8554C37.5356 7.24825 40.6405 8.46699 41.8012 8.90226C43.107 10.063 44.674 13.0808 40.4954 15.8665C40.0601 16.3018 40.0601 20.2192 42.6717 17.1723C45.2833 14.1255 45.2833 13.2549 47.0244 14.1255C48.7655 14.996 48.7655 16.3018 49.2007 17.6076C49.5489 18.6522 52.5378 20.0741 53.9886 20.6544C54.7141 20.9446 55.9909 22.3085 55.2944 25.4424C55.2944 26.487 56.4552 28.7794 57.0355 29.795C58.3413 31.6812 58.7766 35.6276 50.0713 36.324C46.1539 35.4535 33.0959 31.9713 28.7432 43.2882Z" stroke="#2F362E" stroke-width="0.2"/>
<path d="M28.7432 42.853L28.6433 42.8573L28.8432 42.853H28.7432ZM9.18656 26.6529C9.13393 26.6361 9.07769 26.6652 9.06094 26.7178C9.0442 26.7705 9.07329 26.8267 9.12591 26.8434L9.18656 26.6529ZM28.7432 31.9714H28.8432V31.9601L28.8407 31.9492L28.7432 31.9714ZM28.8431 42.8487C28.6954 39.4511 24.5266 31.5338 9.18656 26.6529L9.12591 26.8434C24.4286 31.7125 28.5008 39.5808 28.6433 42.8573L28.8431 42.8487ZM28.8314 36.7122C27.6678 34.5304 25.531 31.1508 22.8993 28.0975C20.2706 25.0475 17.1348 22.3075 13.9709 21.4286L13.9174 21.6213C17.0213 22.4835 20.1244 25.1843 22.7478 28.2281C25.3684 31.2685 27.4972 34.6355 28.655 36.8063L28.8314 36.7122ZM28.8407 31.9492C28.4766 30.347 27.6909 27.7935 26.5156 25.334C25.342 22.8777 23.7723 20.4986 21.8326 19.2643L21.7253 19.433C23.6159 20.6362 25.1656 22.9724 26.3352 25.4202C27.5032 27.8646 28.2844 30.4038 28.6457 31.9935L28.8407 31.9492ZM28.8432 35.8887V31.9714H28.6432V35.8887H28.8432ZM28.8414 35.9075C29.1302 34.3913 29.8244 31.896 30.9673 29.3462C32.1107 26.7953 33.699 24.1994 35.7715 22.4723L35.6435 22.3187C33.5374 24.0737 31.9338 26.701 30.7848 29.2644C29.6352 31.8291 28.9365 34.3394 28.645 35.87L28.8414 35.9075ZM28.8125 35.9608C30.6968 34.149 33.8065 31.3438 37.0099 28.818C38.6116 27.5551 40.2356 26.363 41.7408 25.4001C43.2475 24.4363 44.6294 23.7058 45.748 23.3616L45.6892 23.1705C44.5444 23.5227 43.1443 24.2649 41.633 25.2316C40.1204 26.1993 38.4908 27.3957 36.8861 28.661C33.6766 31.1915 30.5619 34.0013 28.6739 35.8167L28.8125 35.9608ZM28.8432 42.853V41.5472H28.6432V42.853H28.8432ZM28.8432 41.5472V36.7593H28.6432V41.5472H28.8432ZM28.8432 36.7593V35.8887H28.6432V36.7593H28.8432ZM28.829 41.5987C30.9955 37.9877 38.0276 30.0578 48.7904 27.2803L48.7405 27.0866C37.9142 29.8805 30.8435 37.8523 28.6575 41.4958L28.829 41.5987Z" fill="black"/>
<path d="M34.5 36C33.9806 36 33.5451 35.8243 33.1938 35.4729C32.8424 35.1215 32.6667 34.6861 32.6667 34.1667C32.6667 33.6472 32.8424 33.2118 33.1938 32.8604C33.5451 32.509 33.9806 32.3333 34.5 32.3333C35.0194 32.3333 35.4549 32.509 35.8063 32.8604C36.1576 33.2118 36.3333 33.6472 36.3333 34.1667C36.3333 34.6861 36.1576 35.1215 35.8063 35.4729C35.4549 35.8243 35.0194 36 34.5 36ZM27.1667 36C26.6472 36 26.2118 35.8243 25.8604 35.4729C25.509 35.1215 25.3333 34.6861 25.3333 34.1667C25.3333 33.6472 25.509 33.2118 25.8604 32.8604C26.2118 32.509 26.6472 32.3333 27.1667 32.3333C27.6861 32.3333 28.1215 32.509 28.4729 32.8604C28.8243 33.2118 29 33.6472 29 34.1667C29 34.6861 28.8243 35.1215 28.4729 35.4729C28.1215 35.8243 27.6861 36 27.1667 36ZM41.8333 36C41.3139 36 40.8785 35.8243 40.5271 35.4729C40.1757 35.1215 40 34.6861 40 34.1667C40 33.6472 40.1757 33.2118 40.5271 32.8604C40.8785 32.509 41.3139 32.3333 41.8333 32.3333C42.3528 32.3333 42.7882 32.509 43.1396 32.8604C43.491 33.2118 43.6667 33.6472 43.6667 34.1667C43.6667 34.6861 43.491 35.1215 43.1396 35.4729C42.7882 35.8243 42.3528 36 41.8333 36ZM34.5 43.3333C33.9806 43.3333 33.5451 43.1576 33.1938 42.8063C32.8424 42.4549 32.6667 42.0194 32.6667 41.5C32.6667 40.9806 32.8424 40.5451 33.1938 40.1938C33.5451 39.8424 33.9806 39.6667 34.5 39.6667C35.0194 39.6667 35.4549 39.8424 35.8063 40.1938C36.1576 40.5451 36.3333 40.9806 36.3333 41.5C36.3333 42.0194 36.1576 42.4549 35.8063 42.8063C35.4549 43.1576 35.0194 43.3333 34.5 43.3333ZM27.1667 43.3333C26.6472 43.3333 26.2118 43.1576 25.8604 42.8063C25.509 42.4549 25.3333 42.0194 25.3333 41.5C25.3333 40.9806 25.509 40.5451 25.8604 40.1938C26.2118 39.8424 26.6472 39.6667 27.1667 39.6667C27.6861 39.6667 28.1215 39.8424 28.4729 40.1938C28.8243 40.5451 29 40.9806 29 41.5C29 42.0194 28.8243 42.4549 28.4729 42.8063C28.1215 43.1576 27.6861 43.3333 27.1667 43.3333ZM41.8333 43.3333C41.3139 43.3333 40.8785 43.1576 40.5271 42.8063C40.1757 42.4549 40 42.0194 40 41.5C40 40.9806 40.1757 40.5451 40.5271 40.1938C40.8785 39.8424 41.3139 39.6667 41.8333 39.6667C42.3528 39.6667 42.7882 39.8424 43.1396 40.1938C43.491 40.5451 43.6667 40.9806 43.6667 41.5C43.6667 42.0194 43.491 42.4549 43.1396 42.8063C42.7882 43.1576 42.3528 43.3333 41.8333 43.3333ZM21.6667 50.6667C20.6583 50.6667 19.7951 50.3076 19.0771 49.5896C18.359 48.8715 18 48.0083 18 47V21.3333C18 20.325 18.359 19.4618 19.0771 18.7438C19.7951 18.0257 20.6583 17.6667 21.6667 17.6667H23.5V14H27.1667V17.6667H41.8333V14H45.5V17.6667H47.3333C48.3417 17.6667 49.2049 18.0257 49.9229 18.7438C50.641 19.4618 51 20.325 51 21.3333V47C51 48.0083 50.641 48.8715 49.9229 49.5896C49.2049 50.3076 48.3417 50.6667 47.3333 50.6667H21.6667ZM21.6667 47H47.3333V28.6667H21.6667V47Z" fill="#4F512E"/>
<rect x="99.5" y="11" width="142" height="50" rx="9.5" fill="#EDEADF" stroke="black"/>
<mask id="mask0_30_199" style="mask-type:alpha" maskUnits="userSpaceOnUse" x="99" y="10" width="143" height="52">
<rect x="99.5" y="11" width="142" height="50" rx="9.5" fill="#EDEADF" stroke="black"/>
</mask>
<g mask="url(#mask0_30_199)">
<path d="M163.712 40.2322C177.859 48.7058 178.739 63.595 177.41 69.9804C195.3 57.0588 211.742 75.3539 216.847 80.5769C230.809 88.1734 234.071 81.725 233.956 77.5512C234.082 75.4258 234.593 70.7771 235.631 69.1847C239.81 65.1003 239.22 61.7516 238.403 60.5877C236.769 58.2601 233.627 53.1201 234.135 51.1814C234.77 48.7581 236.069 46.7677 234.281 43.7091C232.493 40.6505 231.627 41.9775 224.616 44.0244C217.604 46.0714 221.501 40.1 222.597 39.8695C231.737 39.7791 232.35 33.6205 231.514 30.5525C230.177 28.7346 226.657 23.7888 223.265 18.5488C219.873 13.3087 215.273 17.7489 213.398 20.624C210.021 27.2494 202.92 41.0309 201.535 43.1541C195.602 47.6074 194.64 42.1236 194.9 38.8251C198.95 33.5846 208.048 21.8634 212.042 16.9019C217.035 10.7 211.064 6.80385 207.774 7.49559C204.485 8.18733 200.071 6.25339 192.599 6.10758C185.127 5.96177 188.905 10.319 190.463 12.2812C192.02 14.2434 190.058 15.801 188.529 16.695C187.305 17.4103 185.807 15.55 185.211 14.5305C185.567 13.5016 185.351 10.8376 181.635 8.41337C177.92 5.98911 172.508 11.2869 170.267 14.2389C168.43 13.6711 163.527 12.6795 158.611 13.2555C152.466 13.9755 146.029 29.6402 163.712 40.2322Z" fill="#B4B570" fill-opacity="0.2"/>
<path d="M155.765 103.154L177.41 69.9804M177.41 69.9804C178.739 63.595 177.859 48.7058 163.712 40.2322C146.029 29.6402 152.466 13.9755 158.611 13.2555C163.527 12.6795 168.43 13.6711 170.267 14.2389C172.508 11.2869 177.92 5.98911 181.635 8.41337C185.351 10.8376 185.567 13.5016 185.211 14.5305C185.807 15.55 187.305 17.4103 188.529 16.695C190.058 15.801 192.02 14.2434 190.463 12.2812C188.905 10.319 185.127 5.96177 192.599 6.10758C200.071 6.25339 204.485 8.18733 207.774 7.49559C211.064 6.80385 217.035 10.7 212.042 16.9019C208.048 21.8634 198.95 33.5846 194.9 38.8251C194.64 42.1236 195.602 47.6074 201.535 43.1541C202.92 41.0309 210.021 27.2494 213.398 20.624C215.273 17.7489 219.873 13.3087 223.265 18.5488C226.657 23.7888 230.177 28.7346 231.514 30.5525C232.35 33.6205 231.737 39.7791 222.597 39.8695C221.501 40.1 217.604 46.0714 224.616 44.0244C231.627 41.9775 232.493 40.6505 234.281 43.7091C236.069 46.7677 234.77 48.7581 234.135 51.1814C233.627 53.1201 236.769 58.2601 238.403 60.5877C239.22 61.7516 239.81 65.1003 235.631 69.1847C234.593 70.7771 234.082 75.4258 233.956 77.5512C234.071 81.725 230.809 88.1734 216.847 80.5769C211.742 75.3539 195.3 57.0588 177.41 69.9804Z" stroke="#2F362E" stroke-width="0.2"/>
<path d="M130.065 27.9941H137.768C138.59 27.9941 139.347 28.104 140.039 28.3237C140.738 28.5353 141.341 28.8527 141.845 29.2759C142.358 29.6909 142.757 30.2118 143.042 30.8384C143.326 31.465 143.469 32.1852 143.469 32.999C143.469 33.4629 143.383 33.9227 143.212 34.3784C143.05 34.826 142.818 35.2451 142.517 35.6357C142.224 36.0182 141.874 36.36 141.467 36.6611C141.06 36.9622 140.616 37.1942 140.136 37.3569C140.34 37.4465 140.543 37.5767 140.747 37.7476C140.958 37.9103 141.153 38.1138 141.333 38.3579C141.52 38.5939 141.687 38.8665 141.833 39.1758C141.988 39.4769 142.11 39.8024 142.199 40.1523L143.225 44.1807H144.824L144.848 46.5H141.247L139.868 40.8726C139.615 39.8634 139.229 39.1229 138.708 38.6509C138.195 38.1707 137.491 37.9307 136.596 37.9307H134.216V44.4004H136.071V46.5H130.065V44.4004H131.823V30.106H130.065V27.9941ZM134.216 30.106V35.9287H137.768C138.232 35.9287 138.655 35.8677 139.038 35.7456C139.428 35.6235 139.762 35.4404 140.039 35.1963C140.323 34.9521 140.543 34.651 140.698 34.293C140.861 33.9268 140.942 33.5036 140.942 33.0234C140.942 32.1038 140.665 31.3877 140.112 30.875C139.558 30.3623 138.68 30.106 137.475 30.106H134.216ZM163.723 33.0234C163.723 32.3073 163.593 31.7702 163.333 31.4121C163.072 31.054 162.783 30.7814 162.466 30.5942C162.157 30.3989 161.815 30.2524 161.44 30.1548C161.066 30.049 160.692 29.9961 160.317 29.9961C159.699 29.9961 159.158 30.0693 158.694 30.2158C158.23 30.3542 157.843 30.5454 157.534 30.7896C157.233 31.0337 157.005 31.3185 156.851 31.644C156.696 31.9696 156.619 32.3114 156.619 32.6694C156.619 33.2065 156.712 33.6419 156.899 33.9756C157.095 34.3011 157.339 34.5656 157.632 34.769C157.925 34.9644 158.246 35.119 158.596 35.2329C158.954 35.3468 159.296 35.4608 159.622 35.5747L162.087 36.3804C162.828 36.6164 163.479 36.8849 164.041 37.186C164.61 37.4871 165.086 37.8452 165.469 38.2603C165.851 38.6672 166.14 39.1392 166.335 39.6763C166.539 40.2134 166.641 40.8359 166.641 41.5439C166.641 42.3089 166.482 43.0169 166.165 43.668C165.855 44.319 165.42 44.8846 164.858 45.3647C164.297 45.8449 163.625 46.2233 162.844 46.5C162.071 46.7686 161.221 46.9028 160.293 46.9028C159.341 46.9028 158.527 46.793 157.852 46.5732C157.176 46.3617 156.606 46.0768 156.143 45.7187C155.687 45.3525 155.321 44.9375 155.044 44.4736C154.767 44.0098 154.552 43.5337 154.397 43.0454H153.469V40.9458H156.545C156.545 41.8491 156.639 42.488 156.826 42.8623C157.021 43.2367 157.29 43.55 157.632 43.8022C157.974 44.0464 158.381 44.2336 158.853 44.3638C159.325 44.4858 159.845 44.5469 160.415 44.5469C160.968 44.5469 161.465 44.4818 161.904 44.3516C162.352 44.2214 162.73 44.0342 163.04 43.79C163.357 43.5378 163.597 43.2367 163.76 42.8867C163.931 42.5286 164.016 42.1258 164.016 41.6782C164.016 41.1818 163.91 40.7627 163.699 40.4209C163.495 40.071 163.231 39.7739 162.905 39.5298C162.58 39.2856 162.222 39.0863 161.831 38.9316C161.449 38.777 161.078 38.6427 160.72 38.5288L158.047 37.772C157.461 37.5929 156.924 37.3651 156.436 37.0884C155.955 36.8117 155.54 36.474 155.19 36.0752C154.849 35.6764 154.584 35.2126 154.397 34.6836C154.21 34.1465 154.116 33.528 154.116 32.8281C154.116 32.1201 154.255 31.4569 154.531 30.8384C154.808 30.2199 155.215 29.6787 155.752 29.2148C156.289 28.751 156.944 28.3888 157.717 28.1284C158.499 27.8599 159.39 27.7256 160.391 27.7256C161.05 27.7256 161.656 27.8029 162.209 27.9575C162.771 28.1121 163.276 28.3319 163.723 28.6167C164.179 28.8934 164.578 29.2311 164.919 29.6299C165.269 30.0205 165.562 30.4518 165.798 30.9238H166.714V33.0234H163.723ZM186.004 27.9941H192.01V30.106H190.411L184.417 46.5H181.06L175.152 30.106H173.516V27.9941H179.522V30.106H177.911L182.659 44.376L187.75 30.106H186.004V27.9941ZM199.898 27.9941H207.381C208.211 27.9941 208.972 28.104 209.664 28.3237C210.364 28.5353 210.966 28.8527 211.471 29.2759C211.983 29.6909 212.378 30.2118 212.655 30.8384C212.94 31.465 213.082 32.1852 213.082 32.999C213.082 33.6745 212.944 34.3133 212.667 34.9155C212.39 35.5096 212 36.0304 211.495 36.478C210.991 36.9256 210.384 37.2796 209.676 37.54C208.976 37.8005 208.195 37.9307 207.333 37.9307H204.049V44.4004H205.904V46.5H199.898V44.4004H201.656V30.106H199.898V27.9941ZM204.049 30.106V35.9287H207.381C207.845 35.9287 208.268 35.8677 208.651 35.7456C209.041 35.6154 209.375 35.4282 209.652 35.1841C209.937 34.9399 210.156 34.6348 210.311 34.2686C210.474 33.9023 210.555 33.4792 210.555 32.999C210.555 32.0876 210.278 31.3796 209.725 30.875C209.172 30.3623 208.289 30.106 207.076 30.106H204.049Z" fill="#4F512E"/>
<path d="M177.843 69.317L177.757 69.266L177.927 69.3716L177.843 69.317ZM164.081 25.2243C164.046 25.1815 163.983 25.1752 163.94 25.2101C163.898 25.245 163.891 25.308 163.926 25.3508L164.081 25.2243ZM188.666 52.7299L188.749 52.7846L188.755 52.7752L188.759 52.7647L188.666 52.7299ZM177.929 69.3679C181.058 64.0848 182.6 47.9087 164.081 25.2243L163.926 25.3508C182.42 48.0047 180.824 64.0871 177.757 69.266L177.929 69.3679ZM184.003 60.037C184.399 55.559 184.503 48.2883 183.529 41.0237C182.556 33.7635 180.504 26.4888 176.572 22.0216L176.422 22.1538C180.312 26.5743 182.359 33.7981 183.331 41.0503C184.303 48.2981 184.199 55.5538 183.804 60.0194L184.003 60.037ZM188.759 52.7647C189.796 49.9652 191.136 45.2973 191.79 40.3862C192.444 35.4787 192.414 30.3102 190.695 26.5212L190.513 26.6039C192.208 30.3399 192.244 35.4616 191.592 40.3598C190.94 45.2543 189.604 49.9077 188.572 52.6952L188.759 52.7647ZM184.853 58.7559L188.749 52.7846L188.582 52.6753L184.686 58.6466L184.853 58.7559ZM184.841 58.7706C186.794 56.7423 190.339 53.625 194.622 50.8714C198.907 48.1172 203.922 45.7326 208.817 45.1591L208.793 44.9605C203.855 45.539 198.81 47.9415 194.514 50.7032C190.217 53.4656 186.66 56.593 184.697 58.6319L184.841 58.7706ZM184.788 58.7995C189.464 57.9114 196.997 56.7277 204.395 56.0634C208.095 55.7312 211.759 55.529 215.014 55.5583C218.272 55.5876 221.114 55.8486 223.172 56.4396L223.227 56.2474C221.142 55.6488 218.279 55.3877 215.016 55.3583C211.752 55.329 208.081 55.5317 204.378 55.8642C196.972 56.5292 189.432 57.7139 184.751 58.603L184.788 58.7995ZM177.927 69.3716L179.225 67.3812L179.058 67.2719L177.759 69.2623L177.927 69.3716ZM179.225 67.3812L183.987 60.0829L183.82 59.9736L179.058 67.2719L179.225 67.3812ZM183.987 60.0829L184.853 58.7559L184.686 58.6466L183.82 59.9736L183.987 60.0829ZM179.185 67.4165C186.093 64.0603 204.722 58.9607 223.916 65.4399L223.98 65.2504C204.724 58.7502 186.04 63.8638 179.098 67.2366L179.185 67.4165Z" fill="black"/>
</g>
<circle cx="303" cy="33" r="31.5" fill="#EDEADF" stroke="#4F512E"/>
<path d="M282.509 33.7124C291.562 33.3642 296.437 39.9512 297.743 43.2882C302.096 31.9713 315.154 35.4535 319.071 36.324C327.777 35.6276 327.341 31.6812 326.036 29.795C325.455 28.7794 324.294 26.487 324.294 25.4424C324.991 22.3085 323.714 20.9446 322.989 20.6544C321.538 20.0741 318.549 18.6522 318.201 17.6076C317.765 16.3018 317.765 14.996 316.024 14.1255C314.283 13.2549 314.283 14.1255 311.672 17.1723C309.06 20.2192 309.06 16.3018 309.495 15.8665C313.674 13.0808 312.107 10.063 310.801 8.90226C309.64 8.46699 306.536 7.24825 303.402 5.8554C300.268 4.46254 299.484 7.88664 299.484 9.77279C299.92 13.8353 300.79 22.3085 300.79 23.7013C299.397 27.5316 297.308 25.2973 296.437 23.7013C296.728 20.0741 297.395 11.9491 297.743 8.46697C298.178 4.11431 294.261 4.11431 292.955 5.4201C291.649 6.7259 289.038 7.16117 285.556 9.3375C282.074 11.5138 285.12 12.3844 286.426 12.8196C287.732 13.2549 287.297 14.5607 286.862 15.4312C286.513 16.1277 285.266 15.7214 284.685 15.4312C284.54 14.8509 283.641 13.6902 281.203 13.6902C278.766 13.6902 277.866 17.7526 277.721 19.7839C276.705 20.0741 274.152 21.0897 272.063 22.8307C269.451 25.0071 271.192 34.1477 282.509 33.7124Z" fill="#B4B570" fill-opacity="0.2"/>
<path d="M297.743 65.0516V43.2882M297.743 43.2882C296.437 39.9512 291.562 33.3642 282.509 33.7124C271.192 34.1477 269.451 25.0071 272.063 22.8307C274.152 21.0897 276.705 20.0741 277.721 19.7839C277.866 17.7526 278.766 13.6902 281.203 13.6902C283.641 13.6902 284.54 14.8509 284.685 15.4312C285.266 15.7214 286.513 16.1277 286.862 15.4312C287.297 14.5607 287.732 13.2549 286.426 12.8196C285.12 12.3844 282.074 11.5138 285.556 9.3375C289.038 7.16117 291.649 6.7259 292.955 5.4201C294.261 4.11431 298.178 4.11431 297.743 8.46697C297.395 11.9491 296.728 20.0741 296.437 23.7013C297.308 25.2973 299.397 27.5316 300.79 23.7013C300.79 22.3085 299.92 13.8353 299.484 9.77279C299.484 7.88664 300.268 4.46254 303.402 5.8554C306.536 7.24825 309.64 8.46699 310.801 8.90226C312.107 10.063 313.674 13.0808 309.495 15.8665C309.06 16.3018 309.06 20.2192 311.672 17.1723C314.283 14.1255 314.283 13.2549 316.024 14.1255C317.765 14.996 317.765 16.3018 318.201 17.6076C318.549 18.6522 321.538 20.0741 322.989 20.6544C323.714 20.9446 324.991 22.3085 324.294 25.4424C324.294 26.487 325.455 28.7794 326.036 29.795C327.341 31.6812 327.777 35.6276 319.071 36.324C315.154 35.4535 302.096 31.9713 297.743 43.2882Z" stroke="#2F362E" stroke-width="0.2"/>
<path d="M297.743 42.853L297.643 42.8573L297.843 42.853H297.743ZM278.187 26.6529C278.134 26.6361 278.078 26.6652 278.061 26.7178C278.044 26.7705 278.073 26.8267 278.126 26.8434L278.187 26.6529ZM297.743 31.9714H297.843V31.9601L297.841 31.9492L297.743 31.9714ZM297.843 42.8487C297.695 39.4511 293.527 31.5338 278.187 26.6529L278.126 26.8434C293.429 31.7125 297.501 39.5808 297.643 42.8573L297.843 42.8487ZM297.831 36.7122C296.668 34.5304 294.531 31.1508 291.899 28.0975C289.271 25.0475 286.135 22.3075 282.971 21.4286L282.917 21.6213C286.021 22.4835 289.124 25.1843 291.748 28.2281C294.368 31.2685 296.497 34.6355 297.655 36.8063L297.831 36.7122ZM297.841 31.9492C297.477 30.347 296.691 27.7935 295.516 25.334C294.342 22.8777 292.772 20.4986 290.833 19.2643L290.725 19.433C292.616 20.6362 294.166 22.9724 295.335 25.4202C296.503 27.8646 297.284 30.4038 297.646 31.9935L297.841 31.9492ZM297.843 35.8887V31.9714H297.643V35.8887H297.843ZM297.841 35.9075C298.13 34.3913 298.824 31.896 299.967 29.3462C301.111 26.7953 302.699 24.1994 304.771 22.4723L304.643 22.3187C302.537 24.0737 300.934 26.701 299.785 29.2644C298.635 31.8291 297.937 34.3394 297.645 35.87L297.841 35.9075ZM297.813 35.9608C299.697 34.149 302.806 31.3438 306.01 28.818C307.612 27.5551 309.236 26.363 310.741 25.4001C312.247 24.4363 313.629 23.7058 314.748 23.3616L314.689 23.1705C313.544 23.5227 312.144 24.2649 310.633 25.2316C309.12 26.1993 307.491 27.3957 305.886 28.661C302.677 31.1915 299.562 34.0013 297.674 35.8167L297.813 35.9608ZM297.843 42.853V41.5472H297.643V42.853H297.843ZM297.843 41.5472V36.7593H297.643V41.5472H297.843ZM297.843 36.7593V35.8887H297.643V36.7593H297.843ZM297.829 41.5987C299.996 37.9877 307.028 30.0578 317.79 27.2803L317.74 27.0866C306.914 29.8805 299.844 37.8523 297.657 41.4958L297.829 41.5987Z" fill="black"/>
<path d="M297 35.55H301V29.9125H305V35.55H309V25.8125L303 21.7125L297 25.8125V35.55ZM303 54C297.633 49.3192 293.625 44.9715 290.975 40.9569C288.325 36.9423 287 33.2267 287 29.81C287 24.685 288.608 20.6021 291.825 17.5612C295.042 14.5204 298.767 13 303 13C307.233 13 310.958 14.5204 314.175 17.5612C317.392 20.6021 319 24.685 319 29.81C319 33.2267 317.675 36.9423 315.025 40.9569C312.375 44.9715 308.367 49.3192 303 54Z" fill="#4F512E"/>
</svg>
