<svg width="239" height="384" viewBox="0 0 239 384" fill="none" xmlns="http://www.w3.org/2000/svg">
<g id="groom-and-bride">
<path d="M98.1832 55.7677C99.0339 56.3864 99.4592 56.8891 99.4592 57.2757C99.4592 57.7397 98.9179 58.1651 97.8352 58.5517C96.9845 58.3197 95.3219 58.1264 92.8472 57.9717C90.9139 57.8944 87.9365 58.0877 83.9152 58.5517C80.0485 58.9384 75.9112 59.5184 71.5032 60.2917L65.0072 61.4517L64.8912 62.0317C63.4992 67.1357 62.4939 71.3117 61.8752 74.5597L61.1792 78.7357L61.5272 79.4317C62.3779 81.5197 62.9965 83.7624 63.3832 86.1597C63.6925 89.0211 63.8085 90.8771 63.7312 91.7277C63.7312 93.2744 63.1125 94.3184 61.8752 94.8597C61.4112 95.0917 60.9859 95.2077 60.5992 95.2077C59.9032 95.2077 59.4392 94.8984 59.2072 94.2797C58.6659 93.0424 58.3952 91.6891 58.3952 90.2197C58.3952 88.5957 58.5112 86.4691 58.7432 83.8397L59.2072 80.1277C58.5112 78.1171 57.2739 76.1064 55.4952 74.0957C53.7939 72.1624 51.7059 70.4611 49.2312 68.9917C47.2979 67.9864 45.0552 67.2517 42.5032 66.7877L41.8072 67.0197L37.7472 68.1797C34.1899 73.4384 31.8312 76.9571 30.6712 78.7357C27.6552 83.2984 25.1032 87.3584 23.0152 90.9157C21.0819 94.0864 19.3032 97.2184 17.6792 100.312L14.8952 105.88C14.1992 107.04 13.7739 107.968 13.6192 108.664C12.9232 109.128 12.3045 109.36 11.7632 109.36C10.9125 109.36 10.4099 108.548 10.2552 106.924L11.8792 104.256C11.9565 104.101 12.6139 103.018 13.8512 101.008C14.3152 100.466 14.7792 99.7704 15.2432 98.9197L21.2752 89.8717L29.2792 77.8077L35.6592 68.7597L27.3072 71.3117C24.3685 72.3171 21.0045 73.3997 17.2152 74.5597L14.5472 75.3717C10.5259 76.6091 7.4712 77.4984 5.3832 78.0397C4.9192 78.1944 4.26187 78.2717 3.4112 78.2717C2.09653 78.2717 1.2072 77.7691 0.7432 76.7637C0.588533 76.2997 0.5112 75.9517 0.5112 75.7197C0.5112 74.7144 1.36187 73.7477 3.0632 72.8197C5.07387 71.5824 8.36053 70.3064 12.9232 68.9917C17.3312 67.5997 21.8552 66.4397 26.4952 65.5117C30.4392 64.7384 34.4992 64.4291 38.6752 64.5837L39.3712 63.4237C43.0832 58.3197 47.0272 53.0997 51.2032 47.7637C54.7605 42.9691 58.9752 37.7491 63.8472 32.1037C67.7139 27.6184 71.8899 22.9397 76.3752 18.0677L86.3512 7.51174L88.6712 4.84374L90.1792 2.29174C91.2619 0.513072 92.3445 -0.0669273 93.4272 0.551741C94.2005 0.86107 94.4712 1.32507 94.2392 1.94374L94.3552 2.40774C94.2779 3.18107 93.7752 3.9544 92.8472 4.72774C91.5325 5.8104 89.5219 8.4784 86.8152 12.7317C84.6499 16.1344 81.9045 21.0837 78.5792 27.5797C75.8725 33.0704 73.2045 39.0637 70.5752 45.5597C68.2552 51.6691 66.5539 56.4637 65.4712 59.9437L71.2712 58.7837C75.3699 58.0104 79.5459 57.3917 83.7992 56.9277C85.1139 56.6957 88.1299 56.3477 92.8472 55.8837C95.6312 55.7291 97.4099 55.6904 98.1832 55.7677ZM52.1312 48.4597C48.0325 53.6411 44.1659 58.8997 40.5312 64.2357L40.1832 64.5837C41.7299 64.7384 42.8512 64.8931 43.5472 65.0477C49.2699 63.5011 53.6392 62.4184 56.6552 61.7997L64.0792 60.1757C65.8579 54.6077 67.6752 49.5811 69.5312 45.0957C71.7739 39.2184 74.4032 33.1864 77.4192 26.9997C80.2032 21.1997 82.7552 16.0957 85.0752 11.6877L86.0032 9.94774C82.4459 13.5051 79.5459 16.4824 77.3032 18.8797C73.3592 23.2104 69.1832 27.8504 64.7752 32.7997C59.6712 38.8317 55.4565 44.0517 52.1312 48.4597ZM36.9352 66.9037L37.3992 66.3237L35.3112 66.2077C32.7592 66.2077 29.9365 66.5171 26.8432 67.1357C22.1259 67.9864 17.6405 69.0691 13.3872 70.3837C9.05653 71.7757 6.00187 73.0517 4.2232 74.2117L3.2952 74.9077C3.60453 74.8304 4.26187 74.7917 5.2672 74.7917C7.27787 74.7917 10.2165 74.3277 14.0832 73.3997C18.5685 72.3171 22.8219 71.1184 26.8432 69.8037L36.9352 66.9037ZM60.3672 74.3277C61.2179 70.2291 62.3005 66.0144 63.6152 61.6837L57.0032 63.0757C54.1419 63.6944 50.6619 64.5837 46.5632 65.7437C47.9552 66.1304 49.1539 66.6331 50.1592 67.2517C52.7885 68.6437 55.1085 70.4611 57.1192 72.7037C58.5112 74.2504 59.4392 75.4491 59.9032 76.2997L60.3672 74.3277Z" fill="black"/>
<path d="M121.179 56.8117C121.72 56.8117 121.991 57.0437 121.991 57.5077L121.759 58.4357L118.859 60.1757L115.263 62.6117C114.954 62.7664 113.6 63.6557 111.203 65.2797C109.966 66.0531 108.69 66.9424 107.375 67.9477C106.292 68.5664 105.132 68.9531 103.895 69.1077C102.658 69.1077 102.116 68.5277 102.271 67.3677C102.271 66.4397 102.542 65.3184 103.083 64.0037C103.547 62.8437 104.127 61.6837 104.823 60.5237L105.867 58.6677C105.79 58.3584 105.79 57.9331 105.867 57.3917C106.176 57.0824 106.563 56.6184 107.027 55.9997L107.955 54.7237L108.187 54.2597C108.419 53.5637 108.883 53.4477 109.579 53.9117C109.734 53.9117 110.043 54.0664 110.507 54.3757C111.358 55.0717 111.435 55.6517 110.739 56.1157C110.12 56.5024 109.386 57.1984 108.535 58.2037C107.839 59.1317 107.143 60.1757 106.447 61.3357C106.138 61.8771 105.596 62.9984 104.823 64.6997L104.127 66.9037C104.05 67.0584 104.05 67.1744 104.127 67.2517C104.127 67.2517 104.166 67.2131 104.243 67.1357C104.398 66.9811 105.094 66.5944 106.331 65.9757C107.723 65.2797 108.999 64.5451 110.159 63.7717C110.855 63.3851 112.247 62.5344 114.335 61.2197C115.804 60.1371 117.003 59.3251 117.931 58.7837L120.599 56.8117H121.179ZM112.363 50.6637C111.358 50.5864 110.855 50.2384 110.855 49.6197C110.855 49.2331 110.971 48.8851 111.203 48.5757H111.435L111.551 47.7637C111.628 47.6091 111.783 47.5317 112.015 47.5317C112.092 47.4544 112.208 47.4157 112.363 47.4157C112.595 47.4157 112.866 47.5317 113.175 47.7637C113.794 48.3051 114.064 48.8464 113.987 49.3877C113.987 49.7744 113.832 50.0837 113.523 50.3157C113.523 50.4704 113.407 50.6251 113.175 50.7797C112.866 50.6251 112.672 50.5477 112.595 50.5477L112.363 50.6637Z" fill="black"/>
<path d="M172.815 56.2317C173.511 57.1597 173.704 58.0104 173.395 58.7837C173.318 59.0157 172.97 59.1317 172.351 59.1317L170.031 59.7117C169.49 59.8664 168.91 60.0597 168.291 60.2917C167.672 60.4464 167.015 60.6011 166.319 60.7557C164.927 61.2971 163.496 61.6837 162.027 61.9157C161.022 62.2251 159.63 62.4571 157.851 62.6117H156.691C155.531 62.6117 154.68 62.5731 154.139 62.4957C152.902 62.2637 151.896 61.7997 151.123 61.1037C150.272 60.4851 149.731 59.6344 149.499 58.5517C149.576 58.7837 149.422 58.2037 149.035 56.8117L147.179 57.9717C146.483 58.3584 145.246 59.1704 143.467 60.4077C142.616 61.0264 141.766 61.3357 140.915 61.3357C140.528 61.3357 140.219 61.2971 139.987 61.2197C138.75 60.9877 138.286 60.4077 138.595 59.4797C139.059 58.1651 139.407 57.2757 139.639 56.8117L140.799 54.8397C139.716 55.2264 138.518 55.8837 137.203 56.8117C136.816 57.0437 135.231 58.0491 132.447 59.8277C130.746 60.9877 129.354 62.0704 128.271 63.0757C127.498 63.8491 126.724 64.2357 125.951 64.2357C125.719 64.2357 125.294 64.0811 124.675 63.7717C123.747 63.0757 123.592 62.4957 124.211 62.0317C124.443 61.7224 124.868 61.2971 125.487 60.7557C126.028 60.2144 126.454 59.8277 126.763 59.5957L130.475 56.3477L131.635 55.1877C131.635 55.0331 131.674 54.9171 131.751 54.8397L132.795 53.5637L134.651 51.5917C134.883 51.3597 135.154 51.0117 135.463 50.5477C135.618 50.3931 135.772 50.1611 135.927 49.8517C136.004 49.4651 136.275 49.2717 136.739 49.2717C136.894 49.1171 137.087 49.0397 137.319 49.0397C137.706 49.0397 138.17 49.3104 138.711 49.8517C139.252 50.3931 139.523 50.8184 139.523 51.1277C139.523 51.5144 139.291 51.8237 138.827 52.0557L136.159 54.0277C135.85 54.5691 135.502 55.0331 135.115 55.4197L134.651 56.1157L136.275 55.0717L139.987 52.7517C141.147 52.0557 142.152 51.7464 143.003 51.8237C144.086 51.8237 144.55 52.3651 144.395 53.4477V53.9117C144.395 54.7624 144.163 55.4971 143.699 56.1157C143.39 56.4251 143.003 56.9664 142.539 57.7397L146.019 55.9997C147.411 55.3037 148.416 54.6464 149.035 54.0277C149.267 53.8731 149.615 53.7957 150.079 53.7957C150.543 53.7957 151.046 53.9504 151.587 54.2597C152.515 55.0331 152.863 55.7291 152.631 56.3477C152.476 57.1211 152.438 57.6237 152.515 57.8557C152.515 58.1651 152.67 58.5517 152.979 59.0157C153.52 59.4024 154.1 59.6344 154.719 59.7117C155.338 59.8664 156.343 60.0211 157.735 60.1757C159.436 60.0211 160.674 59.8277 161.447 59.5957C162.684 59.5184 164.076 59.2091 165.623 58.6677L169.335 57.3917C170.186 57.0824 170.92 56.7344 171.539 56.3477C172.08 56.0384 172.506 55.9997 172.815 56.2317ZM133.143 57.0437H132.795C132.331 57.3531 131.983 57.6237 131.751 57.8557L133.143 57.0437Z" fill="black"/>
<path d="M202.638 55.7677C203.489 55.9997 203.914 56.3477 203.914 56.8117C203.914 57.1211 203.721 57.4691 203.334 57.8557L200.666 58.6677L197.07 60.0597C194.827 60.8331 193.513 61.2584 193.126 61.3357C192.507 61.5677 192.005 61.6837 191.618 61.6837C191.154 61.6837 190.535 61.5291 189.762 61.2197C188.679 60.5237 188.099 59.8664 188.022 59.2477C187.79 58.7837 187.674 58.3971 187.674 58.0877C187.21 58.3197 186.63 58.7837 185.934 59.4797C185.161 60.1757 184.31 61.0264 183.382 62.0317L180.83 64.6997C180.057 65.4731 179.167 65.7051 178.162 65.3957C177.079 65.0091 176.654 64.4291 176.886 63.6557C176.963 63.1144 177.273 62.2251 177.814 60.9877C177.969 60.6784 178.587 59.7117 179.67 58.0877L182.106 55.5357C182.879 54.7624 183.73 54.2984 184.658 54.1437H185.238C185.934 54.1437 186.359 54.3371 186.514 54.7237C186.591 54.8784 186.669 55.0717 186.746 55.3037C186.901 55.4584 187.017 55.6131 187.094 55.7677C187.635 55.5357 188.215 55.4584 188.834 55.5357C189.685 55.6131 190.187 56.0384 190.342 56.8117L190.574 58.4357C190.574 58.7451 190.729 59.0157 191.038 59.2477C191.27 59.3251 191.889 59.3251 192.894 59.2477L196.374 58.3197C197.611 57.9331 198.81 57.4691 199.97 56.9277L202.638 55.7677ZM184.658 57.9717C185.277 57.3531 185.586 57.0437 185.586 57.0437L185.006 56.5797C185.006 56.7344 184.929 56.8117 184.774 56.8117C184.619 56.6571 184.194 56.8891 183.498 57.5077C182.647 57.9717 181.913 58.6291 181.294 59.4797C180.521 60.4077 179.979 61.2197 179.67 61.9157L179.554 62.3797C180.405 61.7611 181.217 61.1424 181.99 60.5237L184.658 57.9717Z" fill="black"/>
<path d="M236.865 55.9997C237.947 55.9997 238.489 56.2704 238.489 56.8117C238.489 56.9664 238.334 57.3531 238.025 57.9717C236.478 58.9771 235.589 59.5957 235.357 59.8277C234.815 60.0597 234.158 60.4464 233.385 60.9877C232.689 61.5291 232.109 61.9544 231.645 62.2637C230.639 63.1144 229.402 63.9264 227.933 64.6997C226.85 65.3957 225.613 65.8984 224.221 66.2077C223.679 66.4397 223.138 66.5557 222.597 66.5557C222.055 66.5557 221.475 66.4011 220.857 66.0917C219.851 65.6277 219.117 64.8544 218.653 63.7717C218.421 63.0757 218.305 62.3411 218.305 61.5677C218.305 61.0264 218.343 60.6011 218.421 60.2917L219.117 57.0437L219.581 55.0717C219.426 55.2264 219.194 55.4197 218.885 55.6517C218.575 55.8837 218.15 56.1931 217.609 56.5797C215.83 57.8944 214.09 59.3251 212.389 60.8717C210.455 62.5731 208.909 64.2357 207.749 65.8597C206.898 66.7877 206.241 67.4451 205.777 67.8317L204.965 68.4117C204.423 68.7984 204.114 68.6437 204.037 67.9477C203.341 67.8704 203.109 67.5997 203.341 67.1357C203.882 66.2077 204.346 65.5891 204.733 65.2797C205.351 64.6611 206.125 63.7717 207.053 62.6117L209.605 59.3637L211.229 57.1597L212.157 55.0717C212.157 54.9944 212.505 54.3757 213.201 53.2157C213.355 52.9064 213.51 52.7131 213.665 52.6357C213.819 52.4037 214.09 52.2877 214.477 52.2877C214.863 52.2877 215.289 52.4037 215.753 52.6357C216.294 52.9451 216.565 53.3317 216.565 53.7957C216.565 54.1051 216.41 54.4144 216.101 54.7237C215.869 54.9557 215.559 55.2651 215.173 55.6517C214.863 56.0384 214.477 56.5411 214.013 57.1597L213.897 57.5077C214.438 57.0437 214.941 56.6571 215.405 56.3477C215.869 55.9611 216.294 55.6131 216.681 55.3037C218.305 53.9891 219.697 53.4091 220.857 53.5637C222.017 53.7184 222.558 54.1824 222.481 54.9557C222.403 55.4197 222.287 55.9224 222.133 56.4637C221.978 57.0051 221.862 57.4691 221.785 57.8557C221.398 58.6291 221.05 59.5571 220.741 60.6397C220.663 60.8717 220.625 61.1811 220.625 61.5677C220.625 61.9544 220.702 62.3797 220.857 62.8437C221.243 63.4624 221.553 63.8104 221.785 63.8877H223.757C224.839 63.8104 225.922 63.4237 227.005 62.7277C229.17 61.4131 230.33 60.6784 230.485 60.5237C231.877 59.7504 233.075 58.8997 234.081 57.9717C234.545 57.6624 235.009 57.3531 235.473 57.0437C235.937 56.6571 236.401 56.3091 236.865 55.9997Z" fill="black"/>
<path d="M135.281 181.1C135.822 181.409 136.093 181.834 136.093 182.376C136.093 182.762 135.938 183.11 135.629 183.42H135.281C134.971 183.42 134.507 183.536 133.889 183.768C133.038 184.077 131.917 184.696 130.525 185.624C128.901 186.629 127.277 187.828 125.653 189.22C123.487 190.998 121.67 192.506 120.201 193.744L114.401 198.732C114.401 198.732 114.323 198.809 114.169 198.964C114.633 200.51 114.903 201.554 114.981 202.096C115.522 203.797 116.063 205.073 116.605 205.924C116.605 207.161 116.373 207.78 115.909 207.78C115.599 207.78 115.097 207.393 114.401 206.62C114.014 205.614 113.627 204.3 113.241 202.676C113.163 202.366 113.086 202.018 113.009 201.632C112.931 201.168 112.854 200.665 112.777 200.124L108.833 203.372L105.701 205.692L103.729 207.084L99.3208 210.1C97.3101 211.26 96.1501 211.917 95.8408 212.072C94.9128 212.613 93.9848 212.845 93.0568 212.768C92.2834 212.536 91.8194 211.994 91.6648 211.144V210.68C91.6648 209.829 91.8968 209.017 92.3608 208.244C92.7474 207.393 93.4821 206.156 94.5648 204.532C95.9568 202.521 97.1168 200.936 98.0448 199.776C99.2821 198.074 100.713 196.296 102.337 194.44L106.629 188.988C108.485 186.668 109.838 184.928 110.689 183.768L111.153 183.072L111.385 181.332C111.462 179.321 111.771 177.233 112.313 175.068L113.589 169.732C114.362 167.876 114.865 166.6 115.097 165.904C115.87 164.666 116.411 163.854 116.721 163.468C117.185 162.694 117.881 162.385 118.809 162.54C119.659 162.54 120.162 162.965 120.317 163.816L120.433 164.86C120.433 165.246 120.355 165.826 120.201 166.6C120.046 167.76 119.775 168.958 119.389 170.196C118.538 172.593 117.997 174.024 117.765 174.488C116.295 177.272 115.406 178.896 115.097 179.36C114.091 181.138 113.163 182.569 112.313 183.652V188.64C112.545 191.501 112.931 194.053 113.473 196.296L113.821 197.688C115.058 196.682 116.914 195.097 119.389 192.932L124.957 188.176L129.713 184.464C131.569 183.226 132.729 182.492 133.193 182.26C133.889 181.796 134.585 181.409 135.281 181.1ZM112.661 180.868C112.893 180.558 113.086 180.249 113.241 179.94C113.473 179.553 113.705 179.166 113.937 178.78C114.787 177.388 115.561 175.764 116.257 173.908C116.953 171.897 117.417 170.505 117.649 169.732C117.958 168.03 118.113 166.948 118.113 166.484L117.997 165.092C117.455 165.324 117.03 165.904 116.721 166.832C116.179 167.605 115.599 168.765 114.981 170.312C114.207 172.554 113.705 174.217 113.473 175.3L112.661 180.868ZM108.021 202.212C108.717 201.825 109.49 201.284 110.341 200.588C111.269 199.814 111.965 199.234 112.429 198.848C112.351 198.538 112.274 198.229 112.197 197.92C112.119 197.533 112.042 197.069 111.965 196.528C111.578 194.362 111.307 191.772 111.153 188.756C111.075 187.982 111.037 186.861 111.037 185.392C111.269 185.082 110.147 186.552 107.673 189.8L103.149 195.136C101.293 197.456 99.9394 199.196 99.0888 200.356C97.6194 202.134 96.4981 203.72 95.7248 205.112C94.6421 207.045 94.0234 208.244 93.8688 208.708L93.4048 210.332C93.4821 210.409 93.5594 210.448 93.6368 210.448L95.1448 210.1C96.6141 209.481 97.6968 208.978 98.3928 208.592C99.1661 208.205 100.635 207.316 102.801 205.924C104.347 204.996 106.087 203.758 108.021 202.212Z" fill="black"/>
<path d="M32.8172 299.124C32.6625 299.588 32.5079 300.438 32.3532 301.676C31.5799 302.604 30.9225 303.068 30.3812 303.068C29.6852 303.068 29.1439 302.372 28.7572 300.98C29.1439 299.897 29.3759 299.008 29.4532 298.312C29.5305 297.616 30.1879 295.798 31.4252 292.86C32.5852 290.076 33.9772 287.06 35.6012 283.812C36.9932 281.028 38.9265 277.509 41.4012 273.256C43.7985 269.08 45.8092 265.832 47.4332 263.512L52.0732 256.784C54.0065 253.922 55.0119 252.453 55.0892 252.376C55.4759 251.912 55.7465 251.68 55.9012 251.68C56.2879 251.68 56.6359 252.066 56.9452 252.84C57.0999 253.304 57.1772 253.69 57.1772 254C57.1772 255.237 56.5199 256.861 55.2052 258.872C53.1172 262.12 51.2225 265.368 49.5212 268.616C48.0519 271.168 45.8092 275.382 42.7932 281.26C40.7825 285.049 38.5399 289.457 36.0652 294.484L28.9892 308.636L21.6812 323.484L15.3012 336.592C12.9812 341.309 11.5505 344.402 11.0092 345.872C10.4679 347.186 9.9652 347.844 9.5012 347.844C9.2692 347.844 9.11453 347.65 9.0372 347.264C8.5732 346.104 9.23053 344.402 11.0092 342.16C12.3239 340.458 14.7599 336.94 18.3172 331.604C21.7199 326.422 24.9679 321.589 28.0612 317.104C31.6185 311.922 35.3692 306.78 39.3132 301.676C43.0252 296.804 47.1239 292.048 51.6092 287.408C55.4759 283.386 59.6905 279.558 64.2532 275.924C68.1972 272.753 72.1025 269.853 75.9692 267.224C80.3772 264.285 83.3932 262.39 85.0172 261.54C87.5692 260.225 89.6185 259.606 91.1652 259.684C92.8665 259.838 93.7559 260.766 93.8332 262.468C93.9105 264.014 93.5239 266.102 92.6732 268.732C92.1319 270.433 90.8945 273.604 88.9612 278.244C87.3372 282.188 85.7132 286.48 84.0892 291.12C82.8519 294.445 81.3439 299.278 79.5652 305.62C78.2505 310.878 77.3612 315.48 76.8972 319.424C76.5105 322.672 76.3172 325.301 76.3172 327.312C76.3172 328.704 76.3559 329.748 76.4332 330.444C76.5105 333.537 77.1679 336.089 78.4052 338.1C79.4105 340.033 80.7252 341.309 82.3492 341.928C83.1225 342.314 84.2439 342.508 85.7132 342.508C86.8732 342.508 87.7625 342.43 88.3812 342.276C90.9332 341.657 93.5239 340.458 96.1532 338.68C97.3132 338.138 98.1252 337.868 98.5892 337.868C98.8212 337.868 98.9372 337.945 98.9372 338.1C98.9372 338.486 98.3572 339.26 97.1972 340.42C94.1812 342.43 91.3585 343.784 88.7292 344.48C87.7239 344.789 86.6025 344.944 85.3652 344.944C83.8185 344.944 82.5039 344.673 81.4212 344.132C79.3332 343.049 77.7479 341.386 76.6652 339.144C75.5052 336.978 74.8479 334.117 74.6932 330.56C74.5385 327.312 74.7705 323.522 75.3892 319.192C76.0079 315.016 76.9359 310.376 78.1732 305.272C80.0292 298.621 81.4985 293.749 82.5812 290.656L87.1052 277.548C88.3425 274.3 89.3479 271.129 90.1212 268.036C90.5852 265.716 90.8172 264.092 90.8172 263.164C90.7399 262.236 90.4692 261.733 90.0052 261.656C89.3865 261.656 87.9945 262.197 85.8292 263.28C83.5092 264.285 80.4932 266.025 76.7812 268.5C72.7599 271.129 68.8545 273.952 65.0652 276.968C60.7345 280.37 56.5585 284.121 52.5372 288.22C47.7425 293.169 43.6439 297.886 40.2412 302.372C36.0652 307.94 32.3532 313.082 29.1052 317.8C26.2439 322.053 23.1119 326.964 19.7092 332.532C16.6932 337.636 14.6439 341.348 13.5612 343.668C12.3239 346.297 10.9705 347.728 9.5012 347.96C8.72787 348.037 8.3412 347.766 8.3412 347.148C8.3412 346.606 8.61187 345.91 9.1532 345.06C10.3132 343.049 11.8985 339.994 13.9092 335.896C14.8372 334.194 16.2292 331.41 18.0852 327.544L25.7412 312.232C26.1279 311.304 26.7852 309.912 27.7132 308.056C31.0385 301.25 33.3972 296.494 34.7892 293.788L41.4012 280.564L47.8972 267.804C49.7532 264.169 51.3385 260.728 52.6532 257.48C53.8132 254.618 55.0119 253.149 56.2492 253.072C57.0225 252.994 57.4092 253.11 57.4092 253.42L57.0612 254.116L53.8132 258.06L48.8252 264.556C46.8919 267.185 44.9199 270.356 42.9092 274.068C40.9759 277.625 39.1972 281.144 37.5732 284.624C36.3359 287.33 35.2145 290.385 34.2092 293.788C33.5132 296.572 33.0492 298.35 32.8172 299.124Z" fill="black"/>
<path d="M126.758 312C127.918 312 128.382 312.618 128.15 313.856C127.918 314.165 127.376 314.668 126.526 315.364C126.371 315.441 125.443 315.982 123.742 316.988C122.891 317.761 121.77 318.457 120.378 319.076C118.986 319.694 117.71 320.004 116.55 320.004C115.312 320.004 114.5 319.462 114.114 318.38C113.882 317.606 113.843 316.794 113.998 315.944L112.026 317.336C109.938 318.728 108.584 319.617 107.966 320.004C107.347 320.39 106.767 320.584 106.226 320.584C105.762 320.584 105.336 320.39 104.95 320.004C104.486 319.385 104.254 318.766 104.254 318.148C104.254 317.916 104.331 317.568 104.486 317.104L104.834 316.408C104.447 316.098 104.331 315.441 104.486 314.436C104.486 314.436 104.988 313.933 105.994 312.928C106.226 312.541 106.806 311.884 107.734 310.956L108.082 310.26C108.468 309.564 109.01 309.138 109.706 308.984C110.015 308.829 110.286 308.868 110.518 309.1C111.368 309.409 111.562 309.834 111.098 310.376V310.608C111.098 310.994 110.904 311.458 110.518 312C110.054 312.386 109.203 313.353 107.966 314.9C107.27 315.905 106.806 316.794 106.574 317.568L107.154 317.452C108.623 316.988 109.899 316.408 110.982 315.712C112.838 314.474 114.191 313.508 115.042 312.812L115.274 312.696L115.738 312.116L117.246 309.68C117.478 309.448 117.71 309.332 117.942 309.332C118.328 309.332 118.715 309.564 119.102 310.028C119.875 310.724 119.991 311.342 119.45 311.884C119.604 312.27 119.566 312.502 119.334 312.58C119.024 312.657 118.522 313.044 117.826 313.74C117.13 314.436 116.666 315.132 116.434 315.828C116.124 316.601 116.008 317.065 116.086 317.22C116.086 317.452 116.395 317.568 117.014 317.568C117.555 317.568 118.367 317.336 119.45 316.872C120.378 316.562 121.422 316.06 122.582 315.364C122.968 315.054 123.355 314.745 123.742 314.436C124.128 314.126 124.515 313.778 124.902 313.392C125.288 312.928 125.791 312.464 126.41 312H126.758Z" fill="black"/>
<path d="M151.092 306.896C151.402 307.437 151.556 307.978 151.556 308.52C151.015 309.061 150.435 309.332 149.816 309.332C149.352 309.332 148.927 309.177 148.54 308.868L148.424 308.404L148.308 308.056C148.308 307.901 147.999 307.824 147.38 307.824C146.684 307.824 146.104 307.862 145.64 307.94C144.79 308.094 143.978 308.365 143.204 308.752C141.967 309.37 141 310.028 140.304 310.724C139.995 311.033 139.531 311.458 138.912 312C138.294 312.541 137.791 313.082 137.404 313.624L136.012 315.48L135.2 317.104C134.814 317.877 134.504 318.573 134.272 319.192C134.04 319.81 133.847 320.352 133.692 320.816C133.228 321.821 132.687 322.633 132.068 323.252C131.836 323.484 131.604 323.6 131.372 323.6C130.986 323.6 130.754 323.329 130.676 322.788C130.599 322.556 130.56 322.208 130.56 321.744C130.56 321.125 130.715 320.545 131.024 320.004C132.107 318.302 132.88 317.104 133.344 316.408L134.852 314.204L136.012 311.884C136.708 310.724 137.366 309.254 137.984 307.476C138.448 306.161 139.067 305.62 139.84 305.852C140.691 306.084 141.078 306.354 141 306.664L140.884 307.128C140.884 307.36 140.768 307.708 140.536 308.172C140.923 307.862 141.503 307.476 142.276 307.012C143.204 306.47 144.171 306.045 145.176 305.736C145.95 305.504 146.762 305.388 147.612 305.388C148.618 305.388 149.314 305.504 149.7 305.736C150.319 306.122 150.783 306.509 151.092 306.896Z" fill="black"/>
<path d="M195.501 311.768C196.274 312.309 196.661 312.966 196.661 313.74C196.661 314.126 196.545 314.552 196.313 315.016C195.694 315.016 195.114 315.093 194.573 315.248C193.645 315.402 192.678 315.673 191.673 316.06L187.845 317.336C186.917 317.645 185.37 318.264 183.205 319.192C181.349 320.042 179.3 321.202 177.057 322.672L176.825 322.788L176.245 324.528C175.162 327.621 174.08 330.405 172.997 332.88C171.682 335.973 170.29 339.066 168.821 342.16C167.738 344.325 166.037 347.496 163.717 351.672C162.557 353.76 160.74 356.737 158.265 360.604C156.177 363.697 154.321 366.326 152.697 368.492C151.15 370.502 149.294 372.668 147.129 374.988C145.35 376.844 143.726 378.468 142.257 379.86C140.71 381.252 139.318 382.296 138.081 382.992C137.308 383.456 136.534 383.688 135.761 383.688C135.22 383.688 134.717 383.572 134.253 383.34C132.938 382.876 132.126 381.832 131.817 380.208C131.74 379.821 131.701 379.125 131.701 378.12C131.701 376.805 131.856 375.49 132.165 374.176C132.552 372.242 133.402 369.768 134.717 366.752C136.109 363.89 137.617 361.145 139.241 358.516C140.401 356.66 142.296 353.953 144.925 350.396C147.245 347.457 149.488 344.789 151.653 342.392C153.896 340.072 156.602 337.442 159.773 334.504C162.634 331.874 165.496 329.477 168.357 327.312C170.445 325.61 172.649 323.948 174.969 322.324C175.124 321.705 175.549 320.081 176.245 317.452C176.477 316.369 176.67 314.745 176.825 312.58C176.98 311.11 176.98 310.066 176.825 309.448C176.67 308.752 176.632 308.365 176.709 308.288H176.825L175.665 308.984C175.356 309.138 174.389 309.796 172.765 310.956L169.517 313.624C169.208 313.856 168.086 314.745 166.153 316.292C165.225 317.065 164.22 317.645 163.137 318.032C162.982 318.109 162.75 318.148 162.441 318.148C161.745 318.148 161.281 317.761 161.049 316.988C160.817 316.369 160.701 315.828 160.701 315.364C160.701 314.822 160.817 314.32 161.049 313.856C161.204 313.469 161.436 313.005 161.745 312.464C161.977 311.922 162.248 311.265 162.557 310.492L163.717 307.476C163.408 307.63 163.214 307.708 163.137 307.708C162.828 307.708 162.673 307.437 162.673 306.896C162.673 306.741 162.789 306.432 163.021 305.968C163.176 305.658 163.64 305.117 164.413 304.344C164.722 304.189 164.993 304.112 165.225 304.112L165.689 303.996C166.385 303.996 166.849 304.421 167.081 305.272C167.236 305.736 167.313 306.122 167.313 306.432C167.313 306.896 167.12 307.514 166.733 308.288C166.269 308.906 165.612 309.989 164.761 311.536C164.142 312.85 163.717 313.856 163.485 314.552L164.645 313.972C165.496 313.508 166.617 312.812 168.009 311.884C168.782 311.342 169.44 310.84 169.981 310.376C170.522 309.912 170.986 309.525 171.373 309.216L174.273 306.896C175.046 306.2 175.936 305.736 176.941 305.504L177.521 305.388C178.217 305.388 178.797 305.736 179.261 306.432C179.725 307.205 179.957 308.094 179.957 309.1C179.802 310.801 179.609 312.077 179.377 312.928L178.217 317.916L177.405 320.7C178.488 320.004 180.15 318.998 182.393 317.684C183.94 316.833 185.486 316.098 187.033 315.48C187.652 315.17 188.928 314.629 190.861 313.856C192.794 313.082 193.761 312.696 193.761 312.696C194.38 312.386 194.96 312.077 195.501 311.768ZM171.721 332.3C172.804 329.516 173.732 326.848 174.505 324.296C174.041 324.605 172.262 325.92 169.169 328.24C166.308 330.405 163.446 332.802 160.585 335.432C158.265 337.442 155.636 340.072 152.697 343.32C150.145 346.181 147.902 348.81 145.969 351.208C143.804 354.069 141.948 356.776 140.401 359.328C138.39 362.808 136.998 365.476 136.225 367.332C135.065 369.884 134.369 372.281 134.137 374.524C133.982 375.22 133.905 376.148 133.905 377.308C133.905 378.39 133.982 379.086 134.137 379.396C134.446 380.478 134.794 381.174 135.181 381.484C135.258 381.561 135.413 381.6 135.645 381.6C136.109 381.6 136.689 381.445 137.385 381.136C138.7 380.44 139.976 379.55 141.213 378.468C142.682 377.308 144.306 375.8 146.085 373.944C148.173 371.701 149.99 369.574 151.537 367.564C153.084 365.708 154.978 363.117 157.221 359.792C158.768 357.472 160.546 354.572 162.557 351.092C164.413 347.998 166.076 344.789 167.545 341.464C169.246 338.061 170.638 335.006 171.721 332.3Z" fill="black"/>
<path d="M229.615 312C230.697 312 231.239 312.27 231.239 312.812C231.239 312.966 231.084 313.353 230.775 313.972C229.228 314.977 228.339 315.596 228.107 315.828C227.565 316.06 226.908 316.446 226.135 316.988C225.439 317.529 224.859 317.954 224.395 318.264C223.389 319.114 222.152 319.926 220.683 320.7C219.6 321.396 218.363 321.898 216.971 322.208C216.429 322.44 215.888 322.556 215.347 322.556C214.805 322.556 214.225 322.401 213.607 322.092C212.601 321.628 211.867 320.854 211.403 319.772C211.171 319.076 211.055 318.341 211.055 317.568C211.055 317.026 211.093 316.601 211.171 316.292L211.867 313.044L212.331 311.072C212.176 311.226 211.944 311.42 211.635 311.652C211.325 311.884 210.9 312.193 210.359 312.58C208.58 313.894 206.84 315.325 205.139 316.872C203.205 318.573 201.659 320.236 200.499 321.86C199.648 322.788 198.991 323.445 198.527 323.832L197.715 324.412C197.173 324.798 196.864 324.644 196.787 323.948C196.091 323.87 195.859 323.6 196.091 323.136C196.632 322.208 197.096 321.589 197.483 321.28C198.101 320.661 198.875 319.772 199.803 318.612L202.355 315.364L203.979 313.16L204.907 311.072C204.907 310.994 205.255 310.376 205.951 309.216C206.105 308.906 206.26 308.713 206.415 308.636C206.569 308.404 206.84 308.288 207.227 308.288C207.613 308.288 208.039 308.404 208.503 308.636C209.044 308.945 209.315 309.332 209.315 309.796C209.315 310.105 209.16 310.414 208.851 310.724C208.619 310.956 208.309 311.265 207.923 311.652C207.613 312.038 207.227 312.541 206.763 313.16L206.647 313.508C207.188 313.044 207.691 312.657 208.155 312.348C208.619 311.961 209.044 311.613 209.431 311.304C211.055 309.989 212.447 309.409 213.607 309.564C214.767 309.718 215.308 310.182 215.231 310.956C215.153 311.42 215.037 311.922 214.883 312.464C214.728 313.005 214.612 313.469 214.535 313.856C214.148 314.629 213.8 315.557 213.491 316.64C213.413 316.872 213.375 317.181 213.375 317.568C213.375 317.954 213.452 318.38 213.607 318.844C213.993 319.462 214.303 319.81 214.535 319.888H216.507C217.589 319.81 218.672 319.424 219.755 318.728C221.92 317.413 223.08 316.678 223.235 316.524C224.627 315.75 225.825 314.9 226.831 313.972C227.295 313.662 227.759 313.353 228.223 313.044C228.687 312.657 229.151 312.309 229.615 312Z" fill="black"/>
</g>
</svg>
