<svg width="91" height="92" viewBox="0 0 91 92" fill="none" xmlns="http://www.w3.org/2000/svg">
<g id="location">
<g id="suit-club">
<g id="place_black_24dp 1">
<g id="in-location" filter="url(#filter0_d_23_73)">
<g id="Ellipse 1" filter="url(#filter1_d_23_73)">
<path d="M62 39.4691C62 42.3331 61.0327 45.5618 59.5143 48.8445C58.0014 52.1153 55.9748 55.3688 53.9329 58.2635C51.893 61.1552 49.8509 63.6702 48.3181 65.4629C47.5596 66.3499 46.927 67.0587 46.4826 67.5472C46.0401 67.0825 45.4158 66.4125 44.6692 65.5728C43.1385 63.851 41.0991 61.4212 39.0619 58.5878C34.9465 52.8642 31 45.7087 31 39.4691C31 30.9275 37.9378 24 46.5 24C55.0622 24 62 30.9275 62 39.4691Z" stroke="black" stroke-width="2" shape-rendering="crispEdges"/>
</g>
<circle id="Ellipse 2" cx="46.5" cy="39.5" r="4.5" stroke="black" stroke-width="2"/>
</g>
</g>
</g>
</g>
<defs>
<filter id="filter0_d_23_73" x="26" y="20" width="41" height="54" filterUnits="userSpaceOnUse" color-interpolation-filters="sRGB">
<feFlood flood-opacity="0" result="BackgroundImageFix"/>
<feColorMatrix in="SourceAlpha" type="matrix" values="0 0 0 0 0 0 0 0 0 0 0 0 0 0 0 0 0 0 127 0" result="hardAlpha"/>
<feOffset dy="1"/>
<feGaussianBlur stdDeviation="2"/>
<feComposite in2="hardAlpha" operator="out"/>
<feColorMatrix type="matrix" values="0 0 0 0 0 0 0 0 0 0 0 0 0 0 0 0 0 0 0.78 0"/>
<feBlend mode="normal" in2="BackgroundImageFix" result="effect1_dropShadow_23_73"/>
<feBlend mode="normal" in="SourceGraphic" in2="effect1_dropShadow_23_73" result="shape"/>
</filter>
<filter id="filter1_d_23_73" x="26" y="23" width="41" height="54" filterUnits="userSpaceOnUse" color-interpolation-filters="sRGB">
<feFlood flood-opacity="0" result="BackgroundImageFix"/>
<feColorMatrix in="SourceAlpha" type="matrix" values="0 0 0 0 0 0 0 0 0 0 0 0 0 0 0 0 0 0 127 0" result="hardAlpha"/>
<feOffset dy="4"/>
<feGaussianBlur stdDeviation="2"/>
<feComposite in2="hardAlpha" operator="out"/>
<feColorMatrix type="matrix" values="0 0 0 0 0 0 0 0 0 0 0 0 0 0 0 0 0 0 0.25 0"/>
<feBlend mode="normal" in2="BackgroundImageFix" result="effect1_dropShadow_23_73"/>
<feBlend mode="normal" in="SourceGraphic" in2="effect1_dropShadow_23_73" result="shape"/>
</filter>
</defs>
</svg>
