<svg width="61" height="15" viewBox="0 0 61 15" fill="none" xmlns="http://www.w3.org/2000/svg">
<path d="M0.527109 0.675781H6.07301C6.6648 0.675781 7.20973 0.754883 7.70777 0.913086C8.21168 1.06543 8.64527 1.29395 9.00855 1.59863C9.3777 1.89746 9.6648 2.27246 9.86988 2.72363C10.075 3.1748 10.1775 3.69336 10.1775 4.2793C10.1775 4.61328 10.116 4.94434 9.99293 5.27246C9.87574 5.59473 9.70875 5.89648 9.49195 6.17773C9.28102 6.45312 9.02906 6.69922 8.73609 6.91602C8.44312 7.13281 8.12379 7.2998 7.77809 7.41699C7.92457 7.48145 8.07105 7.5752 8.21754 7.69824C8.36988 7.81543 8.51051 7.96191 8.63941 8.1377C8.77418 8.30762 8.8943 8.50391 8.99977 8.72656C9.11109 8.94336 9.19898 9.17773 9.26344 9.42969L10.0017 12.3301H11.1531L11.1707 14H8.57789L7.58473 9.94824C7.40309 9.22168 7.12477 8.68848 6.74977 8.34863C6.38062 8.00293 5.87379 7.83008 5.22926 7.83008H3.51539V12.4883H4.85133V14H0.527109V12.4883H1.79273V2.19629H0.527109V0.675781ZM3.51539 2.19629V6.38867H6.07301C6.40699 6.38867 6.71168 6.34473 6.98707 6.25684C7.26832 6.16895 7.50855 6.03711 7.70777 5.86133C7.91285 5.68555 8.07105 5.46875 8.18238 5.21094C8.29957 4.94727 8.35816 4.64258 8.35816 4.29688C8.35816 3.63477 8.15895 3.11914 7.76051 2.75C7.36207 2.38086 6.72926 2.19629 5.86207 2.19629H3.51539ZM24.7607 4.29688C24.7607 3.78125 24.6669 3.39453 24.4794 3.13672C24.2919 2.87891 24.0839 2.68262 23.8554 2.54785C23.6327 2.40723 23.3866 2.30176 23.1171 2.23145C22.8476 2.15527 22.578 2.11719 22.3085 2.11719C21.8632 2.11719 21.4736 2.16992 21.1396 2.27539C20.8056 2.375 20.5273 2.5127 20.3046 2.68848C20.0878 2.86426 19.9237 3.06934 19.8124 3.30371C19.7011 3.53809 19.6454 3.78418 19.6454 4.04199C19.6454 4.42871 19.7128 4.74219 19.8476 4.98242C19.9882 5.2168 20.164 5.40723 20.3749 5.55371C20.5859 5.69434 20.8173 5.80566 21.0693 5.8877C21.3271 5.96973 21.5732 6.05176 21.8075 6.13379L23.5829 6.71387C24.1161 6.88379 24.5849 7.07715 24.9892 7.29395C25.3993 7.51074 25.7421 7.76855 26.0175 8.06738C26.2929 8.36035 26.5009 8.7002 26.6415 9.08691C26.788 9.47363 26.8612 9.92188 26.8612 10.4316C26.8612 10.9824 26.747 11.4922 26.5185 11.9609C26.2958 12.4297 25.9823 12.8369 25.578 13.1826C25.1737 13.5283 24.6904 13.8008 24.1279 14C23.5712 14.1934 22.9589 14.29 22.2909 14.29C21.6054 14.29 21.0195 14.2109 20.5331 14.0527C20.0468 13.9004 19.6366 13.6953 19.3027 13.4375C18.9745 13.1738 18.7109 12.875 18.5116 12.541C18.3124 12.207 18.1571 11.8643 18.0458 11.5127H17.3779V10.001H19.5927C19.5927 10.6514 19.6601 11.1113 19.7948 11.3809C19.9355 11.6504 20.1288 11.876 20.3749 12.0576C20.621 12.2334 20.914 12.3682 21.2538 12.4619C21.5937 12.5498 21.9687 12.5938 22.3788 12.5938C22.7773 12.5938 23.1347 12.5469 23.4511 12.4531C23.7734 12.3594 24.0458 12.2246 24.2685 12.0488C24.497 11.8672 24.6698 11.6504 24.787 11.3984C24.9101 11.1406 24.9716 10.8506 24.9716 10.5283C24.9716 10.1709 24.8954 9.86914 24.7431 9.62305C24.5966 9.37109 24.4062 9.15723 24.1718 8.98145C23.9374 8.80566 23.6796 8.66211 23.3984 8.55078C23.123 8.43945 22.8564 8.34277 22.5986 8.26074L20.6737 7.71582C20.2519 7.58691 19.8652 7.42285 19.5136 7.22363C19.1679 7.02441 18.8691 6.78125 18.6171 6.49414C18.371 6.20703 18.1806 5.87305 18.0458 5.49219C17.9111 5.10547 17.8437 4.66016 17.8437 4.15625C17.8437 3.64648 17.9433 3.16895 18.1425 2.72363C18.3417 2.27832 18.6347 1.88867 19.0214 1.55469C19.4081 1.2207 19.8798 0.959961 20.4364 0.772461C20.9989 0.579102 21.6405 0.482422 22.3612 0.482422C22.8359 0.482422 23.2724 0.538086 23.6708 0.649414C24.0751 0.760742 24.4384 0.918945 24.7607 1.12402C25.0888 1.32324 25.3759 1.56641 25.622 1.85352C25.8739 2.13477 26.0849 2.44531 26.2548 2.78516H26.914V4.29688H24.7607ZM40.8028 0.675781H45.127V2.19629H43.9757L39.6602 14H37.2432L32.9893 2.19629H31.8116V0.675781H36.1358V2.19629H34.9757L38.3946 12.4707L42.0596 2.19629H40.8028V0.675781ZM50.8069 0.675781H56.1946C56.7922 0.675781 57.3401 0.754883 57.8381 0.913086C58.342 1.06543 58.7756 1.29395 59.1389 1.59863C59.508 1.89746 59.7922 2.27246 59.9914 2.72363C60.1965 3.1748 60.2991 3.69336 60.2991 4.2793C60.2991 4.76562 60.1995 5.22559 60.0002 5.65918C59.801 6.08691 59.5198 6.46191 59.1565 6.78418C58.7932 7.10645 58.3567 7.36133 57.8469 7.54883C57.343 7.73633 56.7805 7.83008 56.1594 7.83008H53.7952V12.4883H55.1311V14H50.8069V12.4883H52.0725V2.19629H50.8069V0.675781ZM53.7952 2.19629V6.38867H56.1946C56.5286 6.38867 56.8332 6.34473 57.1086 6.25684C57.3899 6.16309 57.6301 6.02832 57.8293 5.85254C58.0344 5.67676 58.1926 5.45703 58.3039 5.19336C58.4211 4.92969 58.4797 4.625 58.4797 4.2793C58.4797 3.62305 58.2805 3.11328 57.8821 2.75C57.4836 2.38086 56.8479 2.19629 55.9748 2.19629H53.7952Z" fill="black"/>
</svg>
